<?xml version="1.0" encoding="iso-8859-1"?>
<!-- Generator: Adobe Illustrator 19.0.0, SVG Export Plug-In . SVG Version: 6.00 Build 0)  -->
<svg version="1.1" id="Capa_1" xmlns="http://www.w3.org/2000/svg" xmlns:xlink="http://www.w3.org/1999/xlink" x="0px" y="0px"
	 viewBox="0 0 512 512" style="enable-background:new 0 0 512 512;" xml:space="preserve">
<g>
	<g>
		<path d="M338.311,224.664c-11.416-9.671-26.37-14.998-42.108-14.998c-3.931,0-7.919,0.333-11.852,0.988L181,227.879V90h-30
			v173.293l138.282-23.047c2.368-0.395,4.742-0.595,7.055-0.595c8.67,0,16.479,2.733,22.582,7.903
			c7.791,6.6,12.081,16.555,12.081,28.032V422h30V275.586C361,255.439,352.729,236.878,338.311,224.664z"/>
	</g>
</g>
<g>
	<g>
		<path d="M414.5,0h-317c-33.084,0-60,26.916-60,60v392c0,33.084,26.916,60,60,60h317c33.084,0,60-26.916,60-60V60
			C474.5,26.916,447.584,0,414.5,0z M121,454V304l100,75L121,454z M391,452h-90V275.586c0-2.875-0.793-4.566-1.472-5.142
			c-0.864-0.73-2.993-0.994-5.313-0.606L121,298.707V60h90v132.465l68.419-11.403c5.559-0.926,11.205-1.396,16.783-1.396
			c22.831,0,44.672,7.851,61.5,22.107C378.863,219.699,391,246.603,391,275.586V452z M391,75c0,21.633-2.431,43.234-7.224,64.201
			l-2.665,11.657h-94.278l5.839-19.336C298.198,113.22,301,94.204,301,75V60h90V75z"/>
	</g>
</g>
<g>
	<g>
		<polygon points="151,364 151,394 171,379 		"/>
	</g>
</g>
<g>
	<g>
		<path d="M330.503,90c-0.688,10.385-2.091,20.691-4.199,30.858h30.606c1.834-10.18,3.056-20.494,3.655-30.858H330.503z"/>
	</g>
</g>
<g>
</g>
<g>
</g>
<g>
</g>
<g>
</g>
<g>
</g>
<g>
</g>
<g>
</g>
<g>
</g>
<g>
</g>
<g>
</g>
<g>
</g>
<g>
</g>
<g>
</g>
<g>
</g>
<g>
</g>
</svg>
